<svg width="24" height="26" viewBox="0 0 24 26" fill="none" xmlns="http://www.w3.org/2000/svg">
<path d="M23.8068 10.4971C23.9135 10.4971 24 10.59 24 10.7045V12.8816C24 13.6965 23.9295 14.4932 23.7942 15.2661C22.7481 21.2696 17.8211 25.8066 11.9154 25.7629C5.2887 25.7139 -0.0146415 19.9662 3.03692e-05 12.8526C0.0146085 5.75175 5.3817 0 12 0C15.2425 0 18.1844 1.38085 20.3444 3.62386C20.4224 3.70483 20.4244 3.83828 20.3477 3.9206L17.4784 7.00066C17.4045 7.07997 17.2852 7.08203 17.2095 7.00469C15.8538 5.61946 14.0196 4.76903 12 4.76903C7.82947 4.76903 4.47111 8.3485 4.4428 12.8253C4.41434 17.3315 7.80884 20.9942 12 20.9942C15.4005 20.9942 18.2767 18.5827 19.2251 15.2661H12.1932C12.0865 15.2661 12 15.1733 12 15.0587V10.7044C12 10.5899 12.0865 10.4971 12.1932 10.4971H23.8068V10.4971Z" fill="#2196F3"/>
<path d="M23.8063 10.4971H22.3577C22.4644 10.4971 22.5508 10.5899 22.5508 10.7044V12.8816C22.5508 13.6964 22.4803 14.4932 22.3451 15.2661C21.3471 20.9935 16.8169 25.3861 11.2744 25.74C11.4865 25.7534 11.6999 25.7613 11.9149 25.7629C17.8207 25.8066 22.7477 21.2696 23.7938 15.2661C23.929 14.4932 23.9995 13.6964 23.9995 12.8816V10.7044C23.9995 10.5899 23.913 10.4971 23.8063 10.4971Z" fill="#1E88E5"/>
<path d="M5.13565 9.4842L1.49121 6.65749C3.5358 2.68778 7.47574 0 12 0C15.2425 0 18.1845 1.38085 20.3444 3.62386C20.4224 3.70483 20.4244 3.83828 20.3477 3.9206L17.4784 7.00066C17.4047 7.07982 17.2854 7.08228 17.2098 7.0051C15.8542 5.61961 14.0198 4.76907 12 4.76907C8.95634 4.76907 6.33274 6.70051 5.13565 9.4842Z" fill="#F44336"/>
<path d="M4.08301 8.66816L5.13512 9.48418C6.22778 6.94338 8.50909 5.11348 11.2133 4.81332C11.2336 4.81096 11.2532 4.80809 11.2739 4.80598C11.0359 4.78172 10.7948 4.76904 10.5508 4.76904C7.80128 4.76904 5.40503 6.32506 4.08301 8.66816Z" fill="#E53935"/>
<path d="M18.8956 3.62386C18.9736 3.70483 18.9756 3.83828 18.8989 3.92064L16.57 6.42064C16.7931 6.60279 17.0067 6.79763 17.2093 7.00474C17.285 7.08208 17.4044 7.08001 17.4783 7.00072L20.3475 3.92064C20.4243 3.83828 20.4222 3.70488 20.3443 3.62386C18.1843 1.38085 15.2423 0 11.9998 0C11.7565 0 11.5151 0.00870516 11.2754 0.0240525C14.2304 0.213 16.8976 1.54911 18.8956 3.62386Z" fill="#E53935"/>
<path d="M20.8027 21.6359C18.6113 24.1744 15.4782 25.7632 11.9999 25.7632C7.30187 25.7632 3.23443 22.865 1.26465 18.6428L4.98535 15.9058C6.10187 18.888 8.82203 20.9942 11.9999 20.9942C13.9943 20.9942 15.808 20.1648 17.1582 18.8097L20.8027 21.6359Z" fill="#4CAF50"/>
<path d="M4.98486 15.9058L3.8877 16.7128C5.162 19.2612 7.66789 20.9941 10.5507 20.9941C10.7945 20.9941 11.0355 20.9813 11.2734 20.9571C8.41175 20.6642 6.01526 18.6582 4.98486 15.9058Z" fill="#43A047"/>
<path d="M11.9999 25.7634C15.4782 25.7634 18.6112 24.1746 20.8026 21.6361L19.91 20.9438C17.8524 23.6928 14.7656 25.5164 11.2773 25.7399C11.5164 25.7552 11.7572 25.7634 11.9999 25.7634Z" fill="#43A047"/>
<path d="M4.44267 12.8819C4.44267 13.9507 4.63533 14.9715 4.98544 15.9061L1.26469 18.6431C0.455391 16.9096 0 14.9528 0 12.8819C0 10.6244 0.540844 8.50261 1.49119 6.65771L5.13562 9.48443C4.69088 10.5175 4.44267 11.6689 4.44267 12.8819Z" fill="#FFC107"/>
<path d="M3.88846 16.7132L4.98562 15.9061C4.63551 14.9715 4.44285 13.9508 4.44285 12.8819C4.44285 11.6689 4.69105 10.5176 5.1358 9.48448L4.08369 8.66846C3.40049 9.87938 3.00398 11.3003 2.99432 12.8257C2.98541 14.2323 3.31012 15.5567 3.88846 16.7132Z" fill="#FFB300"/>
</svg>
